<svg width="113" height="97" viewBox="0 0 113 97" fill="none" xmlns="http://www.w3.org/2000/svg">
<g clip-path="url(#clip0_5_95)">
<path d="M104.316 28.5236L99.3364 47.2044H51.2574L56.237 28.5236H104.316Z" fill="white"/>
<path d="M96.8533 56.5471L91.8737 75.2279H66.2004C71.4296 70.6059 75.3481 64.5224 77.3275 57.6096L77.381 57.4302C77.4657 57.1299 77.5459 56.843 77.6217 56.5426H96.8488L96.8533 56.5471Z" fill="white"/>
<path d="M50.7448 49.0828L50.6511 49.4459L50.513 49.9794C49.3316 53.781 45.8054 56.547 41.6416 56.547C40.8035 56.547 40.0056 56.435 39.2344 56.2198C35.2668 55.1663 32.3513 51.5215 32.3513 47.2044C32.3513 46.2943 32.485 45.4201 32.7257 44.5863H32.7213L34.5089 37.8617H15.2818L14.6577 40.2063C14.0826 42.4389 13.775 44.7835 13.775 47.2044C13.775 50.4815 14.3323 53.6196 15.371 56.547C17.3414 62.1777 21.0548 66.9791 25.865 70.2966C28.4372 72.0898 31.326 73.4437 34.4198 74.2685C36.7245 74.9051 39.1363 75.2324 41.6372 75.2324C42.3727 75.2324 43.0949 75.2055 43.8127 75.1382C54.9976 74.2775 64.3237 66.7774 67.9079 56.5515C68.1575 55.8611 68.3804 55.1394 68.5676 54.4221L68.6434 54.1307L70.4845 47.2089H51.2574L50.7448 49.0872V49.0828Z" fill="white"/>
<path d="M51.2574 11.1114L54.0793 0.5H25.2409L21.0861 16.0786L20.2614 19.1809H49.1043L51.2574 11.1114Z" fill="white"/>
<path d="M63.6951 0.5L59.9237 14.6709L58.7245 19.1809L57.4049 24.1033L56.2369 28.5235H75.4641L77.9516 19.1809L82.9311 0.5H63.6951Z" fill="white"/>
<path d="M2.45187 92.6446C2.45187 92.8598 2.45187 93.0795 2.46525 93.2947C2.47416 93.5099 2.50091 93.7027 2.54549 93.873C2.59007 94.0434 2.6614 94.1823 2.75947 94.2899C2.85755 94.3975 2.99129 94.4513 3.1696 94.4513C3.37913 94.4513 3.54407 94.3661 3.67335 94.1958C3.79817 94.0254 3.86504 93.7699 3.86504 93.4292V87.915H6.58885V93.0481C6.58885 94.1554 6.32583 95.0072 5.79979 95.6035C5.27375 96.1997 4.45349 96.4956 3.34792 96.4956C2.13982 96.4956 1.25715 96.1683 0.70436 95.5138C0.151575 94.8593 -0.0713224 93.8999 0.0356683 92.6402H2.46079L2.45187 92.6446Z" fill="white"/>
<path d="M10.7303 92.6446C10.7303 92.8598 10.7303 93.0795 10.7437 93.2947C10.7526 93.5099 10.7794 93.7027 10.8239 93.873C10.8685 94.0434 10.9398 94.1823 11.0379 94.2899C11.136 94.3975 11.2697 94.4513 11.448 94.4513C11.6576 94.4513 11.8225 94.3661 11.9518 94.1958C12.0766 94.0254 12.1435 93.7699 12.1435 93.4292V87.915H14.8673V93.0481C14.8673 94.1554 14.6043 95.0072 14.0782 95.6035C13.5522 96.1997 12.7319 96.4956 11.6264 96.4956C10.4183 96.4956 9.53559 96.1683 8.9828 95.5138C8.43002 94.8593 8.20712 93.8999 8.31411 92.6402H10.7392L10.7303 92.6446Z" fill="white"/>
<path d="M25.8293 90.3448C25.807 90.1968 25.758 90.0803 25.6911 89.9906C25.6198 89.9009 25.5351 89.8292 25.437 89.7754C25.2453 89.6768 25.0091 89.623 24.7327 89.623C24.434 89.623 24.2111 89.6634 24.0729 89.744C23.9347 89.8247 23.8634 89.9413 23.8634 90.0982C23.8634 90.2551 23.9347 90.3806 24.0729 90.4793C24.2111 90.5779 24.3939 90.6676 24.6168 90.7482C24.8397 90.8289 25.0938 90.8962 25.3791 90.9634C25.6644 91.0307 25.9541 91.1069 26.2573 91.1921C26.5604 91.2772 26.8502 91.3804 27.1355 91.5014C27.4208 91.6224 27.6749 91.7749 27.8978 91.9676C28.1207 92.1559 28.3035 92.3846 28.4417 92.6535C28.5799 92.9225 28.6512 93.2453 28.6512 93.6219C28.6512 94.1105 28.5531 94.5319 28.3614 94.8951C28.1697 95.2537 27.9023 95.5541 27.559 95.7872C27.2157 96.0248 26.8056 96.1996 26.3286 96.3207C25.8516 96.4417 25.33 96.5 24.7594 96.5C24.1888 96.5 23.7163 96.4238 23.2705 96.2714C22.8247 96.1189 22.4413 95.9172 22.1203 95.6617C21.7993 95.4061 21.5497 95.1103 21.3714 94.774C21.1886 94.4378 21.0905 94.0792 21.0771 93.7026H23.685C23.7385 93.9985 23.8901 94.2181 24.1353 94.3661C24.2423 94.4378 24.3671 94.4871 24.5053 94.523C24.6435 94.5588 24.7772 94.5768 24.911 94.5768C25.2587 94.5768 25.5306 94.523 25.7357 94.4199C25.9408 94.3168 26.0433 94.1643 26.0433 93.9626C26.0433 93.7609 25.9274 93.595 25.6911 93.4829C25.4549 93.3708 25.1606 93.2722 24.8084 93.1825C24.4563 93.0929 24.0684 92.9987 23.6538 92.8911C23.2393 92.7836 22.8514 92.6356 22.4992 92.4428C22.1471 92.2501 21.8484 91.9901 21.6166 91.6628C21.3803 91.34 21.2644 90.9096 21.2644 90.3762C21.2644 89.9368 21.3535 89.5468 21.5363 89.2106C21.7191 88.8743 21.9687 88.5964 22.2853 88.3767C22.6062 88.157 22.9852 87.9912 23.422 87.8791C23.8589 87.767 24.3404 87.7087 24.8664 87.7087C25.4415 87.7087 25.9452 87.7805 26.3687 87.9194C26.7922 88.0584 27.1489 88.2467 27.4342 88.4888C27.7195 88.7309 27.9468 89.0088 28.1118 89.3316C28.2767 89.6544 28.3793 89.9951 28.4238 90.3582H25.8382L25.8293 90.3448Z" fill="white"/>
<path d="M30.2961 96.2804V87.9196H33.5861L35.0528 93.1333L36.5194 87.9196H39.8094V96.2804H37.362V93.7251L37.3976 92.425L37.5358 90.9142H37.5136L36.0023 96.276H34.1077L32.5964 90.9142H32.5742L32.6901 92.1471L32.748 93.4472V96.2804H30.3006H30.2961Z" fill="white"/>
<path d="M41.2048 96.2804L44.1827 87.9196H46.9556L49.9335 96.2804H47.2186L46.8976 95.1776H44.1827L43.8707 96.2804H41.2048ZM45.5469 90.439L44.7043 93.4337H46.4251L45.5469 90.439Z" fill="white"/>
<path d="M54.066 93.3665V96.2804H51.3422V87.9196H55.2652C55.9561 87.9196 56.5401 87.9689 57.0082 88.063C57.4763 88.1616 57.8552 88.3051 58.145 88.4979C58.4348 88.6906 58.6398 88.9372 58.7646 89.2421C58.8895 89.5424 58.9474 89.8966 58.9474 90.3001C58.9474 90.7797 58.836 91.2056 58.6131 91.5822C58.3902 91.9588 58.038 92.2098 57.5521 92.3443C57.7661 92.4295 57.9622 92.5147 58.1405 92.5954C58.3188 92.6761 58.466 92.7926 58.5863 92.9451C58.7067 93.0975 58.7958 93.2992 58.8627 93.5548C58.9296 93.8103 58.9608 94.1465 58.9608 94.5634V95.2493C58.9608 95.4331 58.9697 95.5856 58.9831 95.7021C58.9965 95.8187 59.0232 95.8994 59.0633 95.9532C59.1034 96.007 59.1614 96.0294 59.2461 96.0294V96.2849H56.4866C56.4465 96.1908 56.4153 96.0159 56.3886 95.7604C56.3618 95.5049 56.3484 95.1911 56.3484 94.819C56.3484 94.55 56.3351 94.3213 56.3039 94.1331C56.2727 93.9493 56.2058 93.7968 56.1032 93.6848C56.0007 93.5727 55.8491 93.492 55.6575 93.4427C55.4658 93.3934 55.2117 93.3665 54.8951 93.3665H54.066ZM54.066 91.5284H55.1403C55.5638 91.5284 55.8848 91.4701 56.1032 91.3536C56.3217 91.237 56.4331 91.0308 56.4331 90.7394C56.4331 90.448 56.3306 90.2283 56.1255 90.0849C55.9205 89.9414 55.6575 89.8697 55.3365 89.8697H54.066V91.5284Z" fill="white"/>
<path d="M60.3472 87.9196H67.9658V90.1118H65.5184V96.276H62.7946V90.1118H60.3472V87.9196Z" fill="white"/>
<path d="M74.1178 96.2804V87.9196H76.8416V90.7394H79.4183V87.9196H82.1421V96.2804H79.4183V93.0392H76.8416V96.2804H74.1178Z" fill="white"/>
<path d="M88.3209 87.6998C89.0609 87.6998 89.7028 87.8254 90.2556 88.0719C90.8039 88.3185 91.2587 88.6458 91.6197 89.0537C91.9764 89.4617 92.2439 89.9234 92.4222 90.4479C92.6005 90.968 92.6896 91.5059 92.6896 92.0574C92.6896 92.7702 92.5782 93.4023 92.3553 93.9537C92.1324 94.5051 91.8248 94.9713 91.4325 95.3479C91.0402 95.7245 90.5766 96.0114 90.0461 96.2087C89.5156 96.4059 88.9405 96.5045 88.3253 96.5045C87.67 96.5045 87.0771 96.4059 86.5421 96.2087C86.0072 96.0114 85.548 95.72 85.1691 95.3389C84.7902 94.9579 84.4915 94.4872 84.2864 93.9358C84.0769 93.3843 83.9744 92.7522 83.9744 92.0394C83.9744 91.3804 84.0814 90.7887 84.2909 90.2552C84.5004 89.7262 84.7991 89.2689 85.178 88.8923C85.5569 88.5113 86.0161 88.2199 86.5511 88.0136C87.086 87.8074 87.6745 87.7043 88.3209 87.7043V87.6998ZM88.2986 89.7441C87.991 89.7441 87.7324 89.8158 87.5273 89.9593C87.3178 90.1027 87.1529 90.2821 87.0325 90.5062C86.9077 90.7259 86.823 90.9725 86.774 91.2504C86.7249 91.5239 86.6982 91.7929 86.6982 92.0574C86.6982 92.3219 86.7205 92.6043 86.7695 92.8867C86.8141 93.1692 86.8988 93.4247 87.0236 93.6578C87.1484 93.8909 87.3134 94.0837 87.5273 94.2316C87.7369 94.3841 88.0043 94.4603 88.3298 94.4603C88.624 94.4603 88.8737 94.402 89.0787 94.2809C89.2882 94.1599 89.4576 93.994 89.5869 93.7744C89.7162 93.5592 89.8143 93.3036 89.8767 93.0122C89.9391 92.7208 89.9703 92.4026 89.9703 92.0529C89.9703 91.766 89.9391 91.4835 89.8767 91.2056C89.8143 90.9276 89.7207 90.6766 89.5869 90.4569C89.4576 90.2372 89.2838 90.0579 89.0743 89.9279C88.8603 89.7979 88.6062 89.7351 88.3075 89.7441H88.2986Z" fill="white"/>
<path d="M94.4015 96.2804V87.9196H97.6915L99.1581 93.1333L100.625 87.9196H103.915V96.2804H101.467V93.7251L101.503 92.425L101.641 90.9142H101.619L100.108 96.276H98.213L96.7018 90.9142H96.6795L96.7954 92.1471L96.8534 93.4472V96.2804H94.406H94.4015Z" fill="white"/>
<path d="M106.063 96.2804V87.9196H112.84V89.8697H108.787V91.0667H112.215V93.0168H108.787V94.3303H113V96.2804H106.063Z" fill="white"/>
</g>
<defs>
<clipPath id="clip0_5_95">
<rect width="113" height="96" fill="white" transform="translate(0 0.5)"/>
</clipPath>
</defs>
</svg>
