<svg width="92" height="109" viewBox="0 0 92 109" fill="none" xmlns="http://www.w3.org/2000/svg">
<g clip-path="url(#clip0_5_76)">
<path d="M60.3294 1.89193C50.5981 -2.34491 39.0869 0.759309 30.1329 8.87642C36.9843 3.60344 45.2885 1.81223 52.3991 4.90805C61.4253 8.83867 65.8599 19.4727 64.2161 30.9415C58.4732 17.8828 42.4893 7.9913 42.4893 7.9913C42.4893 7.9913 22.194 24.0242 21.4421 39.9102C21.0514 48.1909 25.8087 55.4187 32.7749 59.2109C31.3902 58.9634 30.0267 58.5607 28.7099 57.986C19.2291 53.8582 14.8158 42.3349 17.1902 30.2158C12.7175 46.4668 18.1332 62.5584 30.7912 68.0705C45.1611 74.3251 63.4217 64.5804 71.5772 46.3074C79.7327 28.0345 74.695 8.14651 60.3294 1.89193ZM49.7061 18.9777C44.4432 21.7967 42.1877 26.9941 41.8394 31.6756C41.8394 31.6756 46.6605 29.8131 49.6296 29.4104C45.4074 33.7018 40.0172 41.8441 39.3375 49.9444C37.6342 43.7527 39.363 36.5459 41.6992 34.0583C41.6992 34.0583 36.6318 36.1977 35.5784 36.6424C38.4328 20.1649 50.0671 18.7847 49.7103 18.9735L49.7061 18.9777Z" fill="white"/>
<path d="M5.5262 94.041C5.32656 94.4815 5.02923 95.1737 4.95277 95.3205C4.82959 95.5428 4.55349 95.7861 3.98005 95.7861H0V79.0737C0.0254859 78.8052 0.250612 78.5829 0.547948 78.5829H5.20338L4.60446 79.8623C4.50676 80.0847 4.23067 80.3531 3.65723 80.3531H2.21303C1.96242 80.3531 1.78826 80.5251 1.78826 80.7726V85.8862H4.47703C4.27739 86.3267 3.98005 87.0398 3.9036 87.1908C3.78041 87.4131 3.5298 87.6564 2.95637 87.6564H2.20878C1.98366 87.6564 1.78402 87.8536 1.78402 88.0759V94.0494H5.51771L5.5262 94.041Z" fill="white"/>
<path d="M19.8111 95.7862H18.9913C18.0186 95.7862 17.8699 95.0227 17.7977 94.6787L15.882 86.1757V95.7862H14.0895V78.5787H14.9093C15.9032 78.5787 16.0774 79.0444 16.1793 79.5394L18.0228 88.4871V78.5829H19.8153V95.7904L19.8111 95.7862Z" fill="white"/>
<path d="M35.3873 94.041C35.1876 94.4815 34.8903 95.1737 34.8138 95.3205C34.6906 95.5428 34.4145 95.7861 33.8411 95.7861H29.8568V79.0737C29.8823 78.8052 30.1074 78.5829 30.4048 78.5829H35.0602L34.4613 79.8623C34.3636 80.0847 34.0875 80.3531 33.514 80.3531H32.0698C31.8192 80.3531 31.6451 80.5251 31.6451 80.7726V85.8862H34.3338C34.1342 86.3267 33.8369 87.0398 33.7604 87.1908C33.6372 87.4131 33.3866 87.6564 32.8132 87.6564H32.0656C31.8405 87.6564 31.6408 87.8536 31.6408 88.0759V94.0494H35.3745L35.3873 94.041Z" fill="white"/>
<path d="M47.7054 95.7862V89.4938C47.7054 88.659 47.2594 88.3864 46.7837 88.3864H45.8365V95.7862H44.0439V78.5787H47.3061C48.4997 78.5787 49.4979 79.5394 49.4979 80.7433V86.054C49.4979 86.054 49.5744 87.4048 48.8523 87.5768C49.5489 87.9208 49.4979 89.2002 49.4979 89.2002V95.7862H47.7054ZM46.7837 86.7168C47.2552 86.7168 47.7054 86.5197 47.7054 85.7352V81.1124C47.7054 80.4748 47.2594 80.2273 46.7837 80.2273H45.8365V86.7168H46.7837Z" fill="white"/>
<path d="M64.4794 83.2728C64.4794 83.8643 64.2288 84.1076 63.9824 84.2334C63.8593 84.3089 63.1626 84.6278 62.6869 84.8249V80.8901C62.6869 80.3741 62.2621 79.9547 61.7397 79.9547C61.2172 79.9547 60.7925 80.3741 60.7925 80.8901V93.4748C60.7925 93.9908 61.2172 94.4102 61.7397 94.4102C62.2621 94.4102 62.6869 93.9908 62.6869 93.4748V88.336H62.6104C62.2112 88.336 61.9648 87.7697 61.9648 87.7697L61.3659 86.5406H63.6044C64.1524 86.5406 64.4752 86.8343 64.4752 87.5013V93.7684C64.4752 94.9472 63.5025 95.9078 62.3089 95.954H61.213C59.9939 95.954 58.9999 94.9724 58.9999 93.7684V80.5923C58.9999 79.3883 59.9939 78.4067 61.213 78.4067H62.3089C63.5025 78.4571 64.4752 79.4135 64.4752 80.5923V83.2728H64.4794Z" fill="white"/>
<path d="M75.5998 78.5787C76.1223 78.5787 76.3219 78.9731 76.3219 79.2667V95.7862H75.0519C74.6271 95.7862 74.5549 95.5387 74.5294 95.417V78.5787H75.5998Z" fill="white"/>
<path d="M89.838 78.4067C91.0315 78.4571 92.0043 79.4135 92.0043 80.5923V93.7894C91.9788 94.9682 91.0315 95.9036 89.838 95.954H88.4702C87.2511 95.954 86.2572 94.9724 86.2317 93.7894V80.5923C86.2317 79.3883 87.2256 78.4067 88.4702 78.4067H89.838ZM89.239 94.4102C89.7615 94.4102 90.1863 93.9908 90.1863 93.4496V80.9153C90.1863 80.3741 89.7615 79.9547 89.239 79.9547H88.9672C88.4447 79.9798 88.02 80.3951 88.02 80.9153V93.4496C88.02 93.9656 88.4447 94.3851 88.9672 94.4102H89.239Z" fill="white"/>
<path d="M23.9228 107.83C24.0502 107.893 24.2116 107.96 24.4028 108.023C24.5939 108.09 24.8021 108.144 25.0272 108.19C25.2523 108.237 25.4774 108.258 25.7026 108.258C26.0806 108.258 26.3949 108.211 26.654 108.115C26.9089 108.018 27.1043 107.884 27.236 107.704C27.3676 107.523 27.4314 107.326 27.4314 107.108C27.4314 106.848 27.3592 106.626 27.2147 106.445C27.0703 106.261 26.8537 106.093 26.5691 105.938C26.2845 105.783 25.9319 105.619 25.5114 105.443C25.1971 105.309 24.921 105.17 24.6831 105.023C24.4453 104.876 24.2456 104.717 24.0842 104.545C23.9228 104.373 23.8039 104.188 23.7232 103.987C23.6425 103.786 23.6 103.559 23.6 103.308C23.6 102.964 23.6934 102.657 23.8761 102.393C24.063 102.125 24.3306 101.911 24.6831 101.751C25.0357 101.592 25.4477 101.508 25.9149 101.508C26.276 101.508 26.6201 101.554 26.9429 101.646C27.2657 101.739 27.5418 101.839 27.7712 101.953L27.4823 102.594C27.3634 102.54 27.2275 102.481 27.0831 102.427C26.9386 102.372 26.773 102.322 26.5903 102.284C26.4077 102.246 26.1995 102.225 25.9659 102.225C25.5029 102.225 25.1291 102.322 24.8445 102.511C24.5599 102.699 24.4198 102.964 24.4198 103.299C24.4198 103.559 24.492 103.777 24.6322 103.958C24.7723 104.138 24.9932 104.306 25.282 104.465C25.5751 104.625 25.9277 104.805 26.3482 105.006C26.6625 105.141 26.9344 105.279 27.1765 105.418C27.4144 105.556 27.614 105.707 27.7797 105.871C27.9453 106.034 28.0643 106.215 28.1492 106.412C28.2299 106.613 28.2724 106.84 28.2724 107.091C28.2724 107.456 28.1705 107.779 27.9666 108.06C27.7627 108.341 27.4738 108.564 27.0915 108.727C26.7093 108.891 26.2505 108.975 25.7111 108.975C25.5624 108.975 25.3925 108.962 25.1971 108.933C25.0059 108.904 24.8148 108.87 24.6194 108.828C24.4283 108.786 24.2541 108.736 24.097 108.677C23.9398 108.618 23.8124 108.555 23.7147 108.492L23.9185 107.83H23.9228Z" fill="white"/>
<path d="M35.7185 103.735V108.845H35.0899L34.9497 108.119C34.7925 108.283 34.6056 108.43 34.389 108.56C34.1724 108.694 33.943 108.799 33.7009 108.874C33.4588 108.95 33.2251 108.992 32.9958 108.992C32.6177 108.992 32.3077 108.912 32.0655 108.757C31.8234 108.597 31.6493 108.383 31.5388 108.115C31.4284 107.846 31.3732 107.536 31.3732 107.192V103.735H32.2142V107.075C32.2142 107.427 32.2779 107.712 32.4096 107.939C32.5413 108.165 32.7791 108.274 33.1275 108.274C33.3143 108.274 33.5055 108.232 33.7094 108.153C33.9133 108.073 34.1129 107.96 34.3168 107.817C34.5207 107.674 34.7033 107.515 34.8647 107.347V103.735H35.7058H35.7185Z" fill="white"/>
<path d="M39.1974 107.96C39.3333 108.023 39.4777 108.081 39.6307 108.132C39.7836 108.186 39.9407 108.224 40.1064 108.253C40.2678 108.283 40.4377 108.295 40.6076 108.295C40.8582 108.295 41.0749 108.266 41.2575 108.211C41.4444 108.157 41.5888 108.069 41.695 107.951C41.8012 107.834 41.8564 107.7 41.8564 107.544C41.8564 107.389 41.797 107.255 41.6823 107.137C41.5633 107.02 41.4104 106.915 41.2235 106.814C41.0366 106.718 40.8242 106.63 40.5906 106.55C40.3188 106.458 40.0554 106.349 39.7963 106.223C39.5372 106.097 39.3206 105.933 39.1507 105.736C38.9808 105.539 38.8958 105.308 38.8958 105.04C38.8958 104.583 39.07 104.226 39.414 103.97C39.7581 103.714 40.2296 103.584 40.8285 103.584C40.9772 103.584 41.1556 103.605 41.3552 103.643C41.5591 103.681 41.7587 103.735 41.9584 103.802C42.158 103.87 42.3194 103.949 42.4511 104.037L42.1835 104.616C42.0051 104.541 41.8097 104.461 41.5931 104.386C41.3764 104.31 41.1173 104.268 40.82 104.268C40.5227 104.268 40.2466 104.335 40.0427 104.474C39.8345 104.612 39.7326 104.788 39.7326 105.006C39.7411 105.195 39.86 105.359 40.0894 105.497C40.3188 105.636 40.6034 105.757 40.9389 105.862C41.2235 105.959 41.4954 106.085 41.7587 106.231C42.0221 106.378 42.2387 106.554 42.4086 106.76C42.5785 106.965 42.6635 107.205 42.6635 107.486C42.6635 107.947 42.4893 108.312 42.1368 108.576C41.7842 108.841 41.2745 108.971 40.6076 108.971C40.4632 108.971 40.289 108.954 40.0724 108.916C39.8558 108.878 39.6519 108.832 39.448 108.769C39.2441 108.706 39.0742 108.631 38.9298 108.539L39.2059 107.947L39.1974 107.96Z" fill="white"/>
<path d="M48.1132 104.449H46.9069V107.398C46.9069 107.658 46.9621 107.867 47.0768 108.031C47.1915 108.195 47.3741 108.274 47.6332 108.274C47.7182 108.274 47.8074 108.262 47.8966 108.237C47.9858 108.211 48.0537 108.19 48.1047 108.169L48.3086 108.824C48.2576 108.853 48.1897 108.878 48.1004 108.908C48.0112 108.937 47.9178 108.958 47.8159 108.975C47.7182 108.992 47.6162 109 47.5185 109C47.2212 109 46.9621 108.941 46.7454 108.828C46.5288 108.715 46.3589 108.547 46.24 108.329C46.121 108.111 46.0573 107.842 46.0573 107.519V104.453H45.3097L45.297 103.819H46.0531V102.523L46.9069 102.292V103.819H47.8456L48.1132 104.453V104.449Z" fill="white"/>
<path d="M51.5495 104.05C51.6855 103.958 51.8554 103.878 52.0677 103.815C52.2759 103.748 52.4925 103.698 52.7134 103.656C52.9343 103.618 53.1169 103.597 53.2571 103.597C53.6564 103.597 54.0047 103.673 54.3063 103.819C54.6078 103.966 54.8457 104.172 55.0156 104.432C55.1855 104.692 55.2705 104.99 55.2705 105.325V108.845H54.6291L54.5229 108.329C54.3572 108.497 54.1321 108.648 53.8475 108.778C53.5587 108.908 53.2741 108.971 52.9895 108.971C52.3863 108.971 51.9361 108.82 51.6472 108.518C51.3541 108.216 51.2097 107.838 51.2097 107.389C51.2097 106.89 51.3839 106.504 51.7322 106.236C52.0805 105.967 52.5307 105.829 53.0872 105.829H54.4209V105.543C54.4209 105.191 54.3317 104.902 54.1576 104.671C53.9834 104.44 53.6903 104.323 53.2783 104.323C52.9428 104.323 52.6624 104.361 52.4288 104.44C52.1994 104.516 51.987 104.595 51.7959 104.671L51.5495 104.05ZM52.1102 107.817C52.1782 107.96 52.2801 108.077 52.4203 108.165C52.5605 108.253 52.7389 108.295 52.9598 108.295C53.2571 108.295 53.5332 108.224 53.7796 108.077C54.0302 107.935 54.2425 107.754 54.4209 107.544V106.387H53.0659C52.7176 106.387 52.4543 106.487 52.2759 106.693C52.0975 106.898 52.0083 107.129 52.0083 107.389C52.0083 107.528 52.0423 107.67 52.1102 107.817Z" fill="white"/>
<path d="M58.6941 102.553C58.5879 102.439 58.5327 102.305 58.5327 102.154C58.5327 102.003 58.5879 101.856 58.6941 101.747C58.8003 101.638 58.9362 101.583 59.0977 101.583C59.2591 101.583 59.3907 101.638 59.5097 101.751C59.6286 101.865 59.6838 101.999 59.6838 102.15C59.6838 102.301 59.6244 102.448 59.5097 102.557C59.3907 102.666 59.2591 102.72 59.1104 102.72C58.9405 102.72 58.8003 102.666 58.6941 102.553ZM58.6941 108.845V103.735H59.5479V108.845H58.6941Z" fill="white"/>
<path d="M63.014 108.845V103.735H63.6426L63.7828 104.453C63.9442 104.289 64.1354 104.142 64.3477 104.008C64.5601 103.874 64.7895 103.769 65.0359 103.694C65.2822 103.618 65.5158 103.576 65.7367 103.576C66.119 103.576 66.4291 103.656 66.6627 103.811C66.8963 103.97 67.0705 104.184 67.1852 104.453C67.2999 104.725 67.3551 105.036 67.3551 105.384V108.841H66.514V105.489C66.514 105.137 66.4503 104.851 66.3229 104.625C66.1955 104.398 65.9491 104.289 65.5881 104.289C65.4181 104.289 65.227 104.331 65.0189 104.415C64.8107 104.499 64.6068 104.608 64.4115 104.746C64.2161 104.885 64.0334 105.04 63.8635 105.216V108.841H63.0225L63.014 108.845Z" fill="white"/>
</g>
<defs>
<clipPath id="clip0_5_76">
<rect width="92" height="109" fill="white"/>
</clipPath>
</defs>
</svg>
