<svg width="90" height="71" viewBox="0 0 90 71" fill="none" xmlns="http://www.w3.org/2000/svg">
<g clip-path="url(#clip0_5_62)">
<path d="M27.2991 32.1807H19.1927L26.7562 14.4559L2.8974 0V36.2749L27.2991 51.2425V32.1807Z" fill="white"/>
<path d="M56.4423 32.1807H48.336L55.8959 14.4559L32.037 0V2.07234L32.091 1.9534V22.3524H40.1973L33.7949 37.3525L56.4926 51.2714V32.2888L56.4423 32.1807Z" fill="white"/>
<path d="M61.1803 0V22.5362L61.2306 22.3524H69.337L62.9382 37.3525L85.6359 51.2714V14.8163L61.1803 0Z" fill="white"/>
<path d="M0 57.4415H4.59778C7.20043 57.4415 9.00144 58.8543 9.00144 61.3267C9.00144 63.2297 7.90502 64.3289 6.59291 64.7001C8.25731 65.5615 9.25307 67.9185 9.56582 70.7838H6.68997C6.21904 67.8789 5.08667 65.821 3.46181 65.821H2.7752V70.7838H0V57.4415ZM4.59778 60.1302H2.7788V63.1323H4.59778C5.47851 63.1323 6.14355 62.6025 6.14355 61.6403C6.14355 60.678 5.47851 60.1302 4.59778 60.1302Z" fill="white"/>
<path d="M13.5597 70.7838V57.4415H21.134V60.1302H16.3385V62.7215H20.7421V65.4101H16.3385V68.0987H21.134V70.7874H13.5597V70.7838Z" fill="white"/>
<path d="M24.0889 57.4415H27.202L30.5884 67.5473L33.9531 57.4415H37.0662L32.1341 70.7838H29.021L24.0889 57.4415Z" fill="white"/>
<path d="M46.0856 57.2289C49.9788 57.2289 52.9338 60.2094 52.9338 64.1162C52.9338 68.023 49.9788 71.0036 46.0856 71.0036C42.1924 71.0036 39.2375 68.023 39.2375 64.1162C39.2375 60.2094 42.1924 57.2289 46.0856 57.2289ZM46.0856 68.2141C48.336 68.2141 50.0579 66.3904 50.0579 64.1126C50.0579 61.8349 48.336 60.0112 46.0856 60.0112C43.8353 60.0112 42.0918 61.8565 42.0918 64.1126C42.0918 66.3688 43.8137 68.2141 46.0856 68.2141Z" fill="white"/>
<path d="M57.0067 70.7838V57.4415H59.7855V68.0951H64.581V70.7838H57.0067Z" fill="white"/>
<path d="M69.5886 60.1302H66.3605V57.4415H75.5956V60.1302H72.3674V70.7838H69.5886V60.1302Z" fill="white"/>
<path d="M85.8875 67.9402H81.1316L80.1322 70.7838H77.0191L81.9512 57.4415H85.0643L89.9964 70.7838H86.8833L85.8839 67.9402H85.8875ZM82.0554 65.2515H84.9924L83.5257 61.0924L82.059 65.2515H82.0554Z" fill="white"/>
</g>
<defs>
<clipPath id="clip0_5_62">
<rect width="90" height="71" fill="white"/>
</clipPath>
</defs>
</svg>
