<svg width="76" height="91" viewBox="0 0 76 91" fill="none" xmlns="http://www.w3.org/2000/svg">
<g clip-path="url(#clip0_5_41)">
<path d="M7.32917 77.7172C8.06565 77.7172 8.78629 77.8002 9.49506 77.9661C10.1999 78.1321 10.9641 78.4167 11.7797 78.8198V81.1752C10.9799 80.7168 10.2434 80.3888 9.56633 80.1832C8.88924 79.9777 8.18048 79.8789 7.444 79.8789C6.52142 79.8789 5.68991 80.0686 4.94551 80.448C4.20111 80.8274 3.62697 81.3649 3.21518 82.0565C2.80338 82.7481 2.59749 83.5188 2.59749 84.3645C2.59749 85.2103 2.80338 86.0046 3.21122 86.6923C3.61906 87.3799 4.19715 87.9095 4.93759 88.281C5.68199 88.6565 6.51746 88.8422 7.444 88.8422C8.15672 88.8422 8.83381 88.7394 9.48318 88.5379C10.1286 88.3324 10.9443 87.9648 11.9302 87.4353V89.7907C11.0868 90.2294 10.3147 90.5416 9.60989 90.7273C8.90508 90.9131 8.08149 91.004 7.13911 91.004C5.7691 91.004 4.54955 90.7313 3.46859 90.1899C2.39159 89.6445 1.54424 88.862 0.926547 87.8384C0.308854 86.8148 0.00396729 85.6964 0.00396729 84.4791C0.00396729 83.175 0.320733 82.0051 0.954264 80.9658C1.5878 79.9264 2.46286 79.128 3.57154 78.5629C4.68418 78.0017 5.9354 77.7211 7.32917 77.7211V77.7172Z" fill="white"/>
<path d="M18.7763 77.8832V90.8341H16.2699V77.8832H18.7763Z" fill="white"/>
<path d="M24.9057 77.8832L28.5762 86.1983L32.1517 77.8832H34.7809L29.0514 91H28.1803L22.2647 77.8832H24.9097H24.9057Z" fill="white"/>
<path d="M40.7678 77.8832V90.8341H38.2614V77.8832H40.7678Z" fill="white"/>
<path d="M52.2347 77.7172C53.577 77.7172 54.7886 77.9938 55.8616 78.5471C56.9347 79.1004 57.7899 79.8987 58.4314 80.9381C59.0689 81.9814 59.3896 83.1196 59.3896 84.3645C59.3896 85.6094 59.0768 86.7002 58.4552 87.7356C57.8335 88.7711 56.9782 89.5733 55.8933 90.1464C54.8084 90.7194 53.5809 91.004 52.2188 91.004C50.8567 91.004 49.653 90.7115 48.5562 90.1345C47.4555 89.5536 46.6002 88.7552 45.9865 87.7396C45.3727 86.7239 45.0678 85.6015 45.0678 84.3685C45.0678 83.1354 45.3727 82.0684 45.9865 81.0211C46.6002 79.9777 47.4436 79.1676 48.5206 78.5866C49.5976 78.0096 50.8369 77.7211 52.2347 77.7211V77.7172ZM47.6574 84.3645C47.6574 85.2221 47.8514 85.9967 48.2434 86.6804C48.6354 87.3681 49.1779 87.8977 49.8748 88.2731C50.5716 88.6485 51.3596 88.8382 52.2386 88.8382C53.569 88.8382 54.6658 88.4193 55.5211 87.5854C56.3803 86.7516 56.808 85.6766 56.808 84.3606C56.808 83.503 56.6139 82.7284 56.2259 82.0368C55.8379 81.3491 55.2954 80.8156 54.5906 80.4362C53.8858 80.0607 53.0979 79.871 52.2188 79.871C51.3398 79.871 50.5479 80.0607 49.847 80.4401C49.1422 80.8195 48.6037 81.3531 48.2276 82.0328C47.8514 82.7165 47.6614 83.4911 47.6614 84.3566L47.6574 84.3645Z" fill="white"/>
<path d="M65.8398 77.8832L73.5491 86.9215V77.8832H76V90.8341H73.846L66.0892 81.6455V90.8341H63.6382V77.8832H65.8398Z" fill="white"/>
<path d="M69.4033 21.764L39.5482 0L9.68906 21.764V55.1193H25.2185V68.5484H32.5556V55.1193H46.7071V68.5484H54.0442V55.1193H69.3994V21.764H69.4033ZM32.5595 47.7961V38.0306H46.711V47.7961H32.5595ZM62.0663 47.7961H54.0521V30.7075H25.2225V47.7961H17.0301V25.4868L39.5482 9.06996L62.0663 25.4868V47.7961Z" fill="white"/>
</g>
<defs>
<clipPath id="clip0_5_41">
<rect width="76" height="91" fill="white"/>
</clipPath>
</defs>
</svg>
