<svg width="83" height="91" viewBox="0 0 83 91" fill="none" xmlns="http://www.w3.org/2000/svg">
<g clip-path="url(#clip0_5_28)">
<path d="M75.538 34.5072C75.538 25.0792 68.3008 17.3231 59.128 16.5725C58.4067 7.31527 50.7003 0 41.3265 0C31.9528 0 24.2464 7.31527 23.5251 16.5765C14.3523 17.3271 7.11507 25.0792 7.11507 34.5112C7.11507 43.9432 14.3523 51.6914 23.5211 52.4459C24.2267 61.7231 31.941 69.0542 41.3265 69.0542C50.7121 69.0542 58.4264 61.7231 59.132 52.4459C68.3008 51.6953 75.538 43.9432 75.538 34.5112V34.5072ZM41.3265 7.94274C46.7309 7.94274 51.1418 12.2914 51.2995 17.7004C49.0329 18.5781 46.9831 19.9045 45.2684 21.5765V17.9983C45.2684 15.8061 43.5025 14.0269 41.3265 14.0269C39.1506 14.0269 37.3847 15.8061 37.3847 17.9983V27.2357C33.837 25.6908 31.3457 22.1325 31.3457 17.9983C31.3457 12.4542 35.8237 7.94274 41.3265 7.94274ZM14.9988 34.5072C14.9988 29.0704 19.3033 24.6304 24.6564 24.4597C26.4775 29.2055 30.2341 32.9862 34.9525 34.8051C34.7949 40.2101 30.3839 44.5628 24.9796 44.5628C19.5753 44.5628 14.9988 40.0513 14.9988 34.5072ZM41.3265 61.1075C35.9104 61.1075 31.4916 56.739 31.3536 51.3181C33.6241 50.4404 35.67 49.1139 37.3847 47.442V51.056C37.3847 53.2481 39.1506 55.0273 41.3265 55.0273C43.5025 55.0273 45.2684 53.2481 45.2684 51.056V41.8185C48.8161 43.3594 51.3074 46.9218 51.3074 51.056C51.3074 56.6 46.8294 61.1115 41.3265 61.1115V61.1075ZM57.9809 44.5548C56.1559 39.8249 52.4032 36.0601 47.7006 34.2412C47.8425 28.8202 52.2613 24.4517 57.6735 24.4517C63.0857 24.4517 67.6543 28.9632 67.6543 34.5072C67.6543 40.0513 63.3419 44.388 57.9809 44.5548Z" fill="white"/>
<path d="M7.41466 85.4798C7.89162 85.2058 8.16361 84.7412 8.22668 84.0819L5.36883 84.0541L5.39642 82.1637L10.7771 82.1359C10.8441 84.1137 10.4105 85.6228 9.4802 86.6673C8.54991 87.7117 7.21756 88.2161 5.4792 88.1764C3.88274 88.1406 2.5701 87.6244 1.54127 86.6355C0.512443 85.6466 0 84.3798 0 82.8389C0 81.298 0.516385 80.0073 1.54915 79.0065C2.58192 78.0057 3.89062 77.5013 5.4792 77.5013C6.67358 77.5013 7.69847 77.7357 8.54991 78.2082C9.40136 78.6808 9.9887 79.3361 10.3159 80.186L8.22668 81.2027C8.11631 80.9207 7.96258 80.6784 7.76548 80.4759C7.56839 80.2734 7.38312 80.1225 7.20574 80.0232C7.02835 79.9239 6.81943 79.8484 6.57504 79.7968C6.33064 79.7452 6.14932 79.7174 6.02318 79.7134C5.89704 79.7094 5.7433 79.7055 5.56592 79.7055C4.63958 79.7055 3.89457 79.9874 3.323 80.5474C2.75142 81.1074 2.46761 81.8619 2.46761 82.815C2.46761 83.7682 2.72777 84.5267 3.24416 85.0748C3.76448 85.6228 4.48585 85.8929 5.40824 85.8929C6.26757 85.8929 6.93769 85.7578 7.41071 85.4838L7.41466 85.4798Z" fill="white"/>
<path d="M11.5615 83.927C11.5694 83.4266 11.6364 82.9818 11.7586 82.5926C11.8808 82.2034 12.0266 81.8817 12.2001 81.6315C12.3735 81.3813 12.5943 81.1709 12.8663 81.0041C13.1383 80.8373 13.3945 80.7102 13.6389 80.6308C13.8833 80.5513 14.1671 80.4918 14.5021 80.456C14.8333 80.4203 15.1052 80.4004 15.3142 80.4084C15.5231 80.4163 15.7793 80.4203 16.0789 80.4282C16.3785 80.4362 16.5756 80.4441 16.6662 80.4441V82.6879C16.1341 82.68 15.6926 82.6959 15.3418 82.7356C14.9909 82.7753 14.7111 82.8309 14.5021 82.8984C14.2932 82.9659 14.1355 83.0692 14.0331 83.2161C13.9306 83.3631 13.8636 83.51 13.8281 83.6609C13.7926 83.8118 13.7808 84.0183 13.7808 84.2804V88.0374H11.6088L11.5655 83.927H11.5615Z" fill="white"/>
<path d="M23.3122 80.8412C23.9153 81.1668 24.3844 81.6236 24.7195 82.2193C25.0545 82.811 25.224 83.4901 25.224 84.2526C25.224 85.0151 25.0545 85.6942 24.7195 86.286C24.3844 86.8777 23.9114 87.3384 23.3043 87.664C22.6973 87.9897 22.0075 88.1525 21.2309 88.1525C20.2021 88.1525 19.3309 87.8666 18.6096 87.2907C17.7029 86.556 17.2496 85.5433 17.2496 84.2566C17.2496 83.2479 17.5374 82.398 18.1168 81.699C18.8658 80.8055 19.9025 80.3567 21.227 80.3567C22.0114 80.3567 22.7052 80.5195 23.3083 80.8452L23.3122 80.8412ZM22.2913 85.8054C22.5672 85.6466 22.7801 85.4281 22.9299 85.1501C23.0796 84.8721 23.1545 84.5584 23.1545 84.2129C23.1545 83.6847 22.985 83.2479 22.65 82.8984C22.3149 82.5489 21.8853 82.3741 21.361 82.3741C20.8367 82.3741 20.3873 82.5489 20.0444 82.8984C19.6975 83.2479 19.5241 83.6847 19.5241 84.2129C19.5241 84.475 19.5674 84.7212 19.6581 84.9476C19.7488 85.174 19.871 85.3646 20.0365 85.5274C20.2021 85.6863 20.3952 85.8134 20.6199 85.9087C20.8446 86.004 21.0929 86.0516 21.361 86.0516C21.7079 86.0516 22.0193 85.9722 22.2913 85.8134V85.8054Z" fill="white"/>
<path d="M27.2856 87.9936L25.1136 80.4242L27.3014 80.4083L28.6456 85.2097L29.9227 80.4242L32.5993 80.4083L33.7187 85.1938L35.0905 80.4202H37.2073L35.0196 87.9897H32.3549L31.2748 83.0056L29.9424 87.9897H27.2817L27.2856 87.9936Z" fill="white"/>
<path d="M39.1979 82.3146L37.7552 82.2987L37.7828 80.3647H39.2531V78.8397L41.3817 77.4139L41.3541 80.2932L43.3172 80.3091V82.3265H41.3699V84.757C41.362 85.1343 41.3936 85.4004 41.4685 85.5632C41.5434 85.726 41.6813 85.8213 41.8902 85.861C42.0755 85.9008 42.2765 85.8769 42.4855 85.7975C42.6944 85.7181 42.8521 85.6069 42.9545 85.4679C43.0018 85.5711 43.0649 85.6943 43.1438 85.8333C43.2226 85.9762 43.3487 86.1827 43.5143 86.4528C43.6838 86.7268 43.8296 86.977 43.9637 87.1994C43.8612 87.4536 43.5931 87.664 43.1595 87.8269C42.7259 87.9937 42.2608 88.0731 41.7641 88.0731C41.1768 88.0731 40.6604 87.9222 40.2228 87.6204C39.5488 87.1517 39.2098 86.4687 39.1979 85.5711V82.3106V82.3146Z" fill="white"/>
<path d="M46.7821 77.5569V81.3813C47.2039 80.7896 47.9726 80.4917 49.096 80.4917C49.9553 80.4917 50.653 80.7737 51.1891 81.3376C51.7252 81.9016 51.9933 82.6124 51.9933 83.4703V88.0612L49.7503 88.0334V83.8833C49.7503 83.4425 49.6242 83.085 49.3719 82.811C49.1196 82.537 48.7767 82.398 48.347 82.3861C48.1302 82.3861 47.9331 82.4258 47.7518 82.5052C47.5705 82.5846 47.4128 82.6919 47.2827 82.8309C47.1526 82.9699 47.0502 83.1327 46.9753 83.3313C46.9004 83.5298 46.8649 83.7403 46.8649 83.9667L46.8491 88.0612L44.5786 88.0334V77.5569H46.7782H46.7821Z" fill="white"/>
<path d="M57.1098 86.6712C56.1086 85.6982 55.6119 84.4274 55.6119 82.8666C55.6119 81.3059 56.1125 80.035 57.1098 79.0621C58.1071 78.0891 59.4079 77.6006 61.0044 77.6006C62.6008 77.6006 63.9017 78.0891 64.9068 79.0621C65.912 80.035 66.4126 81.3059 66.4126 82.8666C66.4126 84.4274 65.912 85.6982 64.9147 86.6712C63.9174 87.6442 62.6127 88.1327 61.0044 88.1327C59.3961 88.1327 58.1071 87.6442 57.1098 86.6712ZM60.283 79.7094C60.0465 79.761 59.8258 79.8365 59.6247 79.9358C59.4237 80.035 59.2384 80.1542 59.065 80.2972C58.8915 80.4401 58.7378 80.599 58.6038 80.7856C58.4698 80.9723 58.3515 81.1669 58.253 81.3774C58.1544 81.5878 58.0835 81.8182 58.0362 82.0684C57.9889 82.3186 57.9652 82.5727 57.9652 82.8388C57.9652 83.78 58.249 84.5465 58.8206 85.1383C59.3922 85.73 60.1253 86.0318 61.0202 86.0437C61.6075 86.0437 62.1357 85.9087 62.6048 85.6347C63.0699 85.3607 63.4326 84.9834 63.6888 84.4989C63.945 84.0144 64.0751 83.4623 64.0751 82.8388C64.0751 82.2153 63.945 81.6633 63.6888 81.1788C63.4326 80.6943 63.0699 80.317 62.6048 80.043C62.1357 79.769 61.6114 79.6339 61.0202 79.6339C60.7679 79.6339 60.5235 79.6617 60.283 79.7134V79.7094Z" fill="white"/>
<path d="M75.4631 86.1827C75.1399 86.7863 74.6984 87.2708 74.1308 87.6362C73.5671 88.0016 72.9482 88.1882 72.2742 88.1882C71.9194 88.1882 71.5607 88.1564 71.202 88.0969C70.8433 88.0373 70.5121 87.938 70.2086 87.799C69.9051 87.664 69.708 87.5051 69.6134 87.3264V90.996H67.3271L67.3429 84.5147C67.3705 84.1573 67.4257 83.8118 67.5124 83.4821C68.0445 81.3813 69.5622 80.3249 72.0652 80.305C72.7393 80.2971 73.3818 80.4877 74.0007 80.8769C74.6196 81.2661 75.1044 81.7705 75.4592 82.3821C75.814 82.9937 75.9874 83.6172 75.9795 84.2446C75.9598 84.9317 75.7903 85.5751 75.4671 86.1787L75.4631 86.1827ZM73.8036 84.1732C73.8036 83.6331 73.6183 83.1843 73.2439 82.8308C72.8694 82.4774 72.3964 82.3026 71.8287 82.3026C71.4464 82.3026 71.1034 82.386 70.8038 82.5489C70.5043 82.7117 70.2717 82.9381 70.1022 83.22C69.9327 83.502 69.8499 83.8237 69.8499 84.1811C69.8499 84.7172 70.0352 85.162 70.4018 85.5155C70.7723 85.8689 71.2414 86.0437 71.8169 86.0437C72.3924 86.0437 72.8654 85.865 73.2399 85.5155C73.6144 85.166 73.7997 84.7172 73.7997 84.1732H73.8036Z" fill="white"/>
<path d="M81.9672 87.5172C81.3168 87.9739 80.4969 88.1804 79.5075 88.1327C78.9754 88.097 78.4984 88.0017 78.0766 87.8587C77.6548 87.7157 77.3316 87.545 77.103 87.3583C76.8743 87.1716 76.6891 86.985 76.5511 86.8023C76.4092 86.6196 76.3146 86.4647 76.2634 86.3377C76.2121 86.2106 76.1924 86.147 76.2003 86.147L78.3565 85.2296L78.3723 85.3011C78.3723 85.3567 78.3959 85.4242 78.4432 85.4997C78.4905 85.5751 78.5496 85.6506 78.6245 85.734C78.6994 85.8134 78.8177 85.8849 78.9754 85.9445C79.133 86.0041 79.3222 86.0438 79.5351 86.0636C79.61 86.0716 79.7046 86.0755 79.8229 86.0716C79.9411 86.0676 80.0554 86.0557 80.1658 86.0438C80.2762 86.0279 80.3747 85.9882 80.4614 85.9246C80.5442 85.8571 80.5876 85.7737 80.5876 85.6705C80.5876 85.595 80.5718 85.5275 80.5403 85.4719C80.5088 85.4163 80.4693 85.3686 80.426 85.3289C80.3826 85.2932 80.3077 85.2574 80.2013 85.2296C80.0949 85.2018 80.0002 85.182 79.9214 85.174C79.8426 85.1661 79.7125 85.1462 79.5351 85.1184C79.4208 85.0986 79.338 85.0906 79.2828 85.0906C78.8335 85.0072 78.459 84.9159 78.1555 84.8166C77.8519 84.7173 77.5602 84.5783 77.2804 84.3917C77.0005 84.209 76.7955 83.9667 76.6694 83.6649C76.5432 83.3631 76.488 83.0017 76.5078 82.5768C76.5275 82.1081 76.6773 81.6912 76.965 81.3337C77.2488 80.9763 77.6312 80.7023 78.1081 80.5156C78.5851 80.329 79.1133 80.2535 79.6928 80.2893C79.8702 80.2972 80.0357 80.3131 80.1895 80.3329C80.3432 80.3528 80.489 80.3727 80.6309 80.3965C80.7729 80.4203 80.9029 80.4521 81.0251 80.4878C81.1473 80.5236 81.2616 80.5673 81.376 80.607C81.4863 80.6507 81.5928 80.6943 81.6913 80.742C81.7899 80.7896 81.8845 80.8413 81.9712 80.9048C82.0579 80.9684 82.1407 81.0279 82.2156 81.0954C82.2905 81.163 82.3614 81.2305 82.4324 81.3059C82.5033 81.3814 82.5664 81.4568 82.6295 81.5323C82.6886 81.6078 82.7517 81.6912 82.8187 81.7865L80.7177 82.9024C80.7177 82.9024 80.7256 82.8826 80.7098 82.8468C80.694 82.8111 80.6664 82.7674 80.627 82.7197C80.5836 82.6721 80.5285 82.6244 80.4575 82.5728C80.3866 82.5212 80.288 82.4735 80.1619 82.4298C80.0357 82.3861 79.8899 82.3623 79.7204 82.3504C79.1212 82.3226 78.8177 82.4338 78.8098 82.688C78.8098 82.7833 78.8295 82.8587 78.8729 82.9143C78.9162 82.9699 78.9872 83.0176 79.0897 83.0573C79.1922 83.093 79.2868 83.1248 79.3774 83.1486C79.4642 83.1725 79.61 83.2042 79.8032 83.24C79.8505 83.2479 79.882 83.2559 79.9017 83.2559C80.3117 83.3313 80.6664 83.4108 80.966 83.4942C82.3693 83.9072 83.0434 84.6419 83 85.6983C82.9645 86.4608 82.6176 87.0724 81.9712 87.5251L81.9672 87.5172Z" fill="white"/>
</g>
<defs>
<clipPath id="clip0_5_28">
<rect width="83" height="91" fill="white"/>
</clipPath>
</defs>
</svg>
